<svg xmlns="http://www.w3.org/2000/svg" xmlns:xlink="http://www.w3.org/1999/xlink" width="250" zoomAndPan="magnify" viewBox="0 0 187.5 187.499992" height="250" preserveAspectRatio="xMidYMid meet" version="1.0"><defs><clipPath id="a11cb13ac7"><path d="M 0 0 L 187 0 L 187 187 L 0 187 Z M 0 0 " clip-rule="nonzero"/></clipPath><clipPath id="523b6eb7a3"><path d="M 95 65.339844 L 156.140625 65.339844 L 156.140625 136.589844 L 95 136.589844 Z M 95 65.339844 " clip-rule="nonzero"/></clipPath><clipPath id="94f6633243"><path d="M 31.640625 65.339844 L 93 65.339844 L 93 136.589844 L 31.640625 136.589844 Z M 31.640625 65.339844 " clip-rule="nonzero"/></clipPath></defs><g clip-path="url(#a11cb13ac7)"><path fill="#ffffff" d="M 0 0 L 187.5 0 L 187.5 195 L 0 195 Z M 0 0 " fill-opacity="1" fill-rule="nonzero"/><path fill="#ffffff" d="M 0 0 L 187.5 0 L 187.5 187.5 L 0 187.5 Z M 0 0 " fill-opacity="1" fill-rule="nonzero"/><path fill="#ffffff" d="M 0 0 L 187.5 0 L 187.5 187.5 L 0 187.5 Z M 0 0 " fill-opacity="1" fill-rule="nonzero"/></g><path fill="#5271ff" d="M 22.992188 67.257812 C 22.992188 67.257812 6.300781 100.316406 16.199219 116.902344 C 26.09375 133.488281 36.402344 164.492188 63.628906 169.59375 C 90.859375 174.691406 136.710938 160.097656 151 145.679688 C 165.289062 131.261719 180.921875 88.183594 150.589844 52.722656 C 120.257812 17.261719 77.566406 12.691406 22.992188 67.257812 Z M 22.992188 67.257812 " fill-opacity="1" fill-rule="nonzero"/><g clip-path="url(#523b6eb7a3)"><path fill="#fb2e01" d="M 123.457031 69.300781 C 119.289062 69.300781 115.910156 73.074219 115.910156 77.726562 C 115.910156 82.378906 119.289062 86.152344 123.457031 86.152344 C 127.621094 86.152344 131 82.378906 131 77.726562 C 131 73.074219 127.621094 69.300781 123.457031 69.300781 Z M 149.320312 107.660156 C 147.960938 106.632812 146.679688 104.507812 144.777344 103.097656 C 142.972656 101.734375 141.074219 100.527344 138.75 99.945312 C 133.34375 98.582031 128.058594 100.191406 128.058594 106.476562 C 128.058594 114.144531 134.347656 120.804688 138.230469 124.539062 C 140.871094 127.066406 151.84375 134.132812 156.066406 134.222656 L 156.105469 134.511719 L 153.125 134.9375 L 150.179688 134.9375 C 133.945312 134.9375 121.472656 117.765625 109.742188 117.765625 C 106.515625 117.765625 103.433594 119.980469 103.433594 123.644531 L 103.273438 126.261719 L 104.476562 136.589844 C 102.011719 133.394531 95.007812 117.765625 95.007812 111.886719 C 95.007812 104.058594 105.816406 111.660156 110.582031 111.660156 L 111.222656 111.660156 C 113.042969 111.660156 115.226562 110.097656 115.226562 108.128906 L 115.226562 106.71875 C 115.226562 100.527344 96.886719 82.730469 96.886719 68.847656 L 96.847656 67.4375 L 97.109375 65.335938 L 97.527344 65.335938 C 97.828125 69.359375 103.875 78.28125 106.238281 80.515625 C 110.320312 84.363281 114.464844 88.207031 120.03125 90.289062 C 126.15625 92.566406 132.703125 91.316406 138.53125 94.558594 C 141.8125 96.414062 149.242188 102.964844 149.320312 107.660156 " fill-opacity="1" fill-rule="evenodd"/></g><g clip-path="url(#94f6633243)"><path fill="#1976d2" d="M 56.78125 77.726562 C 56.78125 82.378906 60.15625 86.152344 64.324219 86.152344 C 68.492188 86.152344 71.871094 82.378906 71.871094 77.726562 C 71.871094 73.074219 68.492188 69.300781 64.324219 69.300781 C 60.15625 69.300781 56.78125 73.074219 56.78125 77.726562 Z M 38.457031 107.660156 C 38.539062 102.964844 45.964844 96.414062 49.25 94.558594 C 55.074219 91.316406 61.621094 92.566406 67.75 90.289062 C 73.3125 88.207031 77.457031 84.363281 81.542969 80.515625 C 83.90625 78.28125 89.949219 69.359375 90.25 65.335938 L 90.671875 65.335938 L 90.933594 67.4375 L 90.890625 68.847656 C 90.890625 82.730469 72.554688 100.527344 72.554688 106.71875 L 72.554688 108.128906 C 72.554688 110.097656 74.734375 111.660156 76.558594 111.660156 L 77.199219 111.660156 C 81.960938 111.660156 92.773438 104.058594 92.773438 111.886719 C 92.773438 117.765625 85.765625 133.394531 83.304688 136.589844 L 84.503906 126.261719 L 84.34375 123.644531 C 84.34375 119.980469 81.261719 117.765625 78.039062 117.765625 C 66.308594 117.765625 53.835938 134.9375 37.597656 134.9375 L 34.65625 134.9375 L 31.671875 134.511719 L 31.710938 134.222656 C 35.9375 134.132812 46.90625 127.066406 49.550781 124.539062 C 53.433594 120.804688 59.71875 114.144531 59.71875 106.476562 C 59.71875 100.191406 54.433594 98.582031 49.03125 99.945312 C 46.707031 100.527344 44.804688 101.734375 43.003906 103.097656 C 41.101562 104.507812 39.820312 106.632812 38.457031 107.660156 " fill-opacity="1" fill-rule="evenodd"/></g></svg>