<svg xmlns="http://www.w3.org/2000/svg" xmlns:xlink="http://www.w3.org/1999/xlink" width="250" zoomAndPan="magnify" viewBox="0 0 187.5 187.499992" height="250" preserveAspectRatio="xMidYMid meet" version="1.0"><defs><clipPath id="bc68cc3c8e"><path d="M 0 0 L 187 0 L 187 187 L 0 187 Z M 0 0 " clip-rule="nonzero"/></clipPath><clipPath id="63e77bbce3"><path d="M 23.457031 97 L 90 97 L 90 163.707031 L 23.457031 163.707031 Z M 23.457031 97 " clip-rule="nonzero"/></clipPath><clipPath id="b852088bb9"><path d="M 23.457031 23.457031 L 90 23.457031 L 90 90 L 23.457031 90 Z M 23.457031 23.457031 " clip-rule="nonzero"/></clipPath><clipPath id="549863b9a2"><path d="M 97 23.457031 L 163.707031 23.457031 L 163.707031 90 L 97 90 Z M 97 23.457031 " clip-rule="nonzero"/></clipPath><clipPath id="d1376b5b8a"><path d="M 97 97 L 163.707031 97 L 163.707031 163.707031 L 97 163.707031 Z M 97 97 " clip-rule="nonzero"/></clipPath></defs><g clip-path="url(#bc68cc3c8e)"><path fill="#ffffff" d="M 0 0 L 187.5 0 L 187.5 195 L 0 195 Z M 0 0 " fill-opacity="1" fill-rule="nonzero"/><path fill="#ffffff" d="M 0 0 L 187.5 0 L 187.5 187.5 L 0 187.5 Z M 0 0 " fill-opacity="1" fill-rule="nonzero"/><path fill="#ffffff" d="M 0 0 L 187.5 0 L 187.5 187.5 L 0 187.5 Z M 0 0 " fill-opacity="1" fill-rule="nonzero"/></g><g clip-path="url(#63e77bbce3)"><path fill="#e01e5a" d="M 53.023438 112.097656 C 53.023438 120.242188 46.441406 126.824219 38.292969 126.824219 C 30.148438 126.824219 23.566406 120.242188 23.566406 112.097656 C 23.566406 103.953125 30.148438 97.371094 38.292969 97.371094 L 53.023438 97.371094 Z M 60.386719 112.097656 C 60.386719 103.953125 66.96875 97.371094 75.113281 97.371094 C 83.257812 97.371094 89.839844 103.953125 89.839844 112.097656 L 89.839844 148.917969 C 89.839844 157.0625 83.257812 163.644531 75.113281 163.644531 C 66.96875 163.644531 60.386719 157.0625 60.386719 148.917969 Z M 60.386719 112.097656 " fill-opacity="1" fill-rule="nonzero"/></g><g clip-path="url(#b852088bb9)"><path fill="#36c5f0" d="M 75.113281 52.964844 C 66.96875 52.964844 60.386719 46.382812 60.386719 38.238281 C 60.386719 30.09375 66.96875 23.511719 75.113281 23.511719 C 83.257812 23.511719 89.839844 30.09375 89.839844 38.238281 L 89.839844 52.964844 Z M 75.113281 60.441406 C 83.257812 60.441406 89.839844 67.023438 89.839844 75.167969 C 89.839844 83.3125 83.257812 89.894531 75.113281 89.894531 L 38.183594 89.894531 C 30.039062 89.894531 23.457031 83.3125 23.457031 75.167969 C 23.457031 67.023438 30.039062 60.441406 38.183594 60.441406 Z M 75.113281 60.441406 " fill-opacity="1" fill-rule="nonzero"/></g><g clip-path="url(#549863b9a2)"><path fill="#2eb67d" d="M 134.136719 75.167969 C 134.136719 67.023438 140.71875 60.441406 148.863281 60.441406 C 157.007812 60.441406 163.589844 67.023438 163.589844 75.167969 C 163.589844 83.3125 157.007812 89.894531 148.863281 89.894531 L 134.136719 89.894531 Z M 126.769531 75.167969 C 126.769531 83.3125 120.1875 89.894531 112.042969 89.894531 C 103.898438 89.894531 97.316406 83.3125 97.316406 75.167969 L 97.316406 38.238281 C 97.316406 30.09375 103.898438 23.511719 112.042969 23.511719 C 120.1875 23.511719 126.769531 30.09375 126.769531 38.238281 Z M 126.769531 75.167969 " fill-opacity="1" fill-rule="nonzero"/></g><g clip-path="url(#d1376b5b8a)"><path fill="#ecb22e" d="M 112.042969 134.191406 C 120.1875 134.191406 126.769531 140.773438 126.769531 148.917969 C 126.769531 157.0625 120.1875 163.644531 112.042969 163.644531 C 103.898438 163.644531 97.316406 157.0625 97.316406 148.917969 L 97.316406 134.191406 Z M 112.042969 126.824219 C 103.898438 126.824219 97.316406 120.242188 97.316406 112.097656 C 97.316406 103.953125 103.898438 97.371094 112.042969 97.371094 L 148.972656 97.371094 C 157.117188 97.371094 163.699219 103.953125 163.699219 112.097656 C 163.699219 120.242188 157.117188 126.824219 148.972656 126.824219 Z M 112.042969 126.824219 " fill-opacity="1" fill-rule="nonzero"/></g></svg>